<?xml version="1.0" encoding="UTF-8"?>
<svg width="18px" height="18px" viewBox="0 0 18 18" version="1.1" xmlns="http://www.w3.org/2000/svg" xmlns:xlink="http://www.w3.org/1999/xlink">
    <!-- Generator: Sketch 50.2 (55047) - http://www.bohemiancoding.com/sketch -->
    <title>add_config</title>
    <desc>Created with Sketch.</desc>
    <defs></defs>
    <g id="add_config" stroke="none" stroke-width="1" fill="none" fill-rule="evenodd">
        <circle id="Combined-Shape" stroke="#00A9FD" stroke-width="2" cx="9" cy="9" r="8"></circle>
        <path d="M10.7527777,10.7768117 L7.46111102,10.7768117 L6.76666657,13.4000001 L4.5999999,13.4000001 L7.36388879,3.97971024 C7.40092602,3.80579633 7.4888881,3.66570111 7.62777768,3.55942039 C7.76666727,3.45313966 7.9240731,3.4000001 8.0999999,3.4000001 L10.0999999,3.4000001 C10.49815,3.4000001 10.743518,3.59323488 10.836111,3.97971024 L13.5999999,13.4000001 L11.4472221,13.4000001 L10.7527777,10.7768117 Z M10.5000002,9.76363646 L9.58953507,6.2886694 C9.46395305,5.73969871 9.39069797,5.38287312 9.36976763,5.21818191 L8.94593042,5.21818191 C8.92500009,5.32797605 8.88837255,5.50364403 8.8360467,5.74519114 C8.78372086,5.98673824 8.74186081,6.16789585 8.71046531,6.2886694 L7.80000019,9.76363646 L10.5000002,9.76363646 Z" id="Combined-Shape" fill="#00A9FD"></path>
    </g>
</svg>