<?xml version="1.0" encoding="UTF-8"?>
<svg width="12px" height="12px" viewBox="0 0 12 12" version="1.1" xmlns="http://www.w3.org/2000/svg" xmlns:xlink="http://www.w3.org/1999/xlink">
    <!-- Generator: Sketch 50.2 (55047) - http://www.bohemiancoding.com/sketch -->
    <title>add_error</title>
    <desc>Created with Sketch.</desc>
    <defs></defs>
    <g id="add_error" stroke="none" stroke-width="1" fill="none" fill-rule="evenodd">
        <rect id="Combined-Shape" fill="#ED6B75" x="0" y="0" width="12" height="12" rx="2"></rect>
        <path d="M7.08,4.34 L6.86,6.68 L5.22,6.68 L5,4.34 L5,2 L7.08,2 L7.08,4.34 Z M5.81,8.1 L6.28,8.1 C6.5533347,8.1 6.74166615,8.15166615 6.845,8.255 C6.94833385,8.35833385 7,8.5466653 7,8.82 L7,9.23 C7,9.5033347 6.94833385,9.69166615 6.845,9.795 C6.74166615,9.89833385 6.5533347,9.95 6.28,9.95 L5.81,9.95 C5.5366653,9.95 5.34833385,9.89833385 5.245,9.795 C5.14166615,9.69166615 5.09,9.5033347 5.09,9.23 L5.09,8.82 C5.09,8.5466653 5.14166615,8.35833385 5.245,8.255 C5.34833385,8.15166615 5.5366653,8.1 5.81,8.1 Z" id="Введите-текст-запроса-Copy-61" fill="#FFFFFF"></path>
    </g>
</svg>