<?xml version="1.0" encoding="UTF-8"?>
<svg width="12px" height="12px" viewBox="0 0 12 12" version="1.1" xmlns="http://www.w3.org/2000/svg" xmlns:xlink="http://www.w3.org/1999/xlink">
    <!-- Generator: Sketch 50.2 (55047) - http://www.bohemiancoding.com/sketch -->
    <desc>Created with Sketch.</desc>
    <defs></defs>
    <g id="add_edit" stroke="none" stroke-width="1" fill="none" fill-rule="evenodd">
        <path d="M5.02692653,11.2217919 L7.33875209,8.90996634 L7.38132976,3.45353363 C7.38132976,2.68265042 6.75640544,2.0577261 5.98552222,2.0577261 L3.86719348,2.11670992 C3.09631027,2.11670992 2.47138594,2.74163424 2.47138594,3.51251746 L2.56831934,8.76318471 L5.02692653,11.2217919 Z M3.41641766,0.0187042734 L6.42248325,-0.0582765884 C8.07547844,-0.0582765884 9.41549581,1.28174078 9.41549581,2.93473598 L9.51531515,9.53127428 L4.99949226,14.0470972 L0.529978304,9.57758321 L0.423405098,3.01171684 C0.423405098,1.35872164 1.76342247,0.0187042734 3.41641766,0.0187042734 Z M7.37563732,4.26052495 L7.37042571,6.33764382 L5.87259667,6.35361217 L5.88427816,8.08964369 L3.94914304,8.10561229 L3.92448859,6.28205584 L2.50928125,6.2731199 L2.4712493,4.31723505 L7.37563732,4.26052495 Z" id="Combined-Shape" fill="#BAC3D0" fill-rule="nonzero" transform="translate(4.969360, 6.994410) rotate(-315.000000) translate(-4.969360, -6.994410) "></path>
    </g>
</svg>