<?xml version="1.0" encoding="UTF-8"?>
<svg width="12px" height="12px" viewBox="0 0 12 12" version="1.1" xmlns="http://www.w3.org/2000/svg" xmlns:xlink="http://www.w3.org/1999/xlink">
    <!-- Generator: Sketch 50.2 (55047) - http://www.bohemiancoding.com/sketch -->
    <title>add_support</title>
    <desc>Created with Sketch.</desc>
    <defs></defs>
    <g id="add_support" stroke="none" stroke-width="1" fill="none" fill-rule="evenodd">
        <path d="M3.90985994,1 C3.62181606,2.59466183 2.60823075,3.59612762 1,3.87905191 C1,4.16841293 1,4.58874766 1,5.29843993 C1,6.76676396 1,7.00500129 1,7.3871568 C1.88255561,8.97378132 3.5446393,10.1663597 6.04351312,10.9517299 C8.52231597,10.1203792 10.1563375,8.92742016 11,7.39056823 C11,7.3091196 11,7.18958412 11,6.99888775 C11,6.35321941 11,6.35321941 11,5.55454908 C11,5.42676488 11,5.42676488 11,5.29852295 C11,4.50148725 11,4.42937622 11,3.87340386 C9.45491149,3.58233057 8.48448083,2.58027538 8.20695361,1 L3.90985994,1 Z" id="Rectangle-6" stroke="#32C5D2" stroke-width="2"></path>
    </g>
</svg>