<?xml version="1.0" encoding="UTF-8"?>
<svg width="12px" height="12px" viewBox="0 0 12 12" version="1.1" xmlns="http://www.w3.org/2000/svg" xmlns:xlink="http://www.w3.org/1999/xlink">
    <!-- Generator: Sketch 50.2 (55047) - http://www.bohemiancoding.com/sketch -->
    <desc>Created with Sketch.</desc>
    <defs></defs>
    <g id="add_file" stroke="none" stroke-width="1" fill="none" fill-rule="evenodd">
        <path d="M10.4876952,9.16754329 L10.4046934,4.35296698 C10.4046934,2.03823035 8.52817569,0.161712653 6.21343907,0.161712653 C3.89870244,0.161712653 2.02218474,2.03823035 2.02218474,4.35296698 L2.10518658,8.93469583 C2.10518658,10.6065406 3.46035881,11.9617128 5.13220359,11.9617128 C6.80404837,11.9617128 8.1592206,10.6065406 8.1592206,8.93469583 L8.07621877,4.35296698 C8.07621877,3.32424689 7.24215916,2.49018728 6.21343907,2.49018728 C5.18471898,2.49018728 4.35065937,3.32424689 4.35065937,4.35296698 L4.4336612,9.16754329 C4.4336612,9.42460689 4.64229253,9.63323822 4.89935613,9.63323822 C5.15641973,9.63323822 5.36505105,9.42460689 5.36505105,9.16754329 L5.28204922,4.35296698 C5.28204922,3.83860693 5.69907902,3.42157713 6.21343907,3.42157713 C6.72779911,3.42157713 7.14482892,3.83860693 7.14482892,4.35296698 L7.22783075,8.93469583 C7.22783075,10.0921806 6.28968833,11.030323 5.13220359,11.030323 C3.97471885,11.030323 3.03657643,10.0921806 3.03657643,8.93469583 L2.95357459,4.35296698 C2.95357459,2.5525904 4.41306249,1.0931025 6.21343907,1.0931025 C8.01381565,1.0931025 9.47330354,2.5525904 9.47330354,4.35296698 L9.55630538,9.16754329 C9.55630538,9.42460689 9.76493671,9.63323822 10.0220003,9.63323822 C10.2790639,9.63323822 10.4876952,9.42460689 10.4876952,9.16754329 Z" id="Fill-1" stroke="#32C5D2" stroke-width="0.7" fill="#32C5D2" transform="translate(6.254940, 6.061713) rotate(-315.000000) translate(-6.254940, -6.061713) "></path>
    </g>
</svg>