<?xml version="1.0" encoding="UTF-8"?>
<svg width="24px" height="24px" viewBox="0 0 24 24" version="1.1" xmlns="http://www.w3.org/2000/svg" xmlns:xlink="http://www.w3.org/1999/xlink">
    <!-- Generator: Sketch 50.2 (55047) - http://www.bohemiancoding.com/sketch -->
    <title>bell_icon</title>
    <desc>Created with Sketch.</desc>
    <defs></defs>
    <g id="bell_icon" stroke="none" stroke-width="1" fill="none" fill-rule="evenodd">
        <path d="M9.96777684,22 C9.43289569,22 9,22.4480874 9,22.9998599 C9,23.5527533 9.43370941,24 9.96777684,24 L14.0324939,24 C14.5671038,24 14.9999995,23.5521928 14.9999995,22.9998599 C15.000542,22.4480874 14.5668326,22 14.0322227,22 L9.96777684,22 Z" id="Fill-1" fill="#BAC3D0"></path>
        <path d="M1,15.5711309 L1,18.4001224 C1.09122303,18.4248736 1.18662411,18.4503927 1.28607055,18.4765988 C2.08917047,18.6882313 2.9853504,18.9001707 3.95078614,19.0980461 C6.70234431,19.6620046 9.4508079,19.9999994 12,20 C14.5491875,20 17.2976529,19.6620051 20.0492127,19.0980461 C21.0146482,18.9001707 21.9108279,18.6882314 22.7139275,18.4765988 C22.8133741,18.4503927 22.9087752,18.4248736 22.9999983,18.4001223 L23.0000002,15.571012 L20.3658085,14.4563359 L20.3658085,11.0473556 C20.3658085,7.5697963 18.0349254,4.50216082 14.6454256,3.41217127 L14.0748277,3.22867938 L13.967674,2.63895973 C13.7964277,1.69650669 12.9703236,1 12,1 C11.0296202,1 10.203483,1.69658616 10.0322987,2.63910996 L9.92518969,3.22884122 L9.35460174,3.41237511 C5.96553209,4.50249473 3.63527998,7.56978434 3.63527998,11.0473556 L3.63527998,14.4564388 L3.02485061,14.7146432 L1,15.5711309 Z M0.293690184,18.1994619 L0.293613861,18.1994385 C0.293641315,18.1994469 0.29365535,18.1994512 0.293690247,18.1994619 Z M23.7063086,18.1994616 C23.7063452,18.1994504 23.7063634,18.1994448 23.7063547,18.1994475 Z" id="Combined-Shape" stroke="#BAC3D0" stroke-width="2"></path>
    </g>
</svg>