<?xml version="1.0" encoding="UTF-8"?>
<svg width="40px" height="40px" viewBox="0 0 40 40" version="1.1" xmlns="http://www.w3.org/2000/svg" xmlns:xlink="http://www.w3.org/1999/xlink">
    <!-- Generator: Sketch 50.2 (55047) - http://www.bohemiancoding.com/sketch -->
    <title>button_upload_auto_basic</title>
    <desc>Created with Sketch.</desc>
    <defs></defs>
    <g id="button_upload_auto_basic" stroke="none" stroke-width="1" fill="none" fill-rule="evenodd">
        <path d="M20.9998729,10 L20.9998729,23.0535516 L24.7691325,19.2921553 L26.1818686,20.7078447 L19.9183398,26.9583068 L13.7856297,20.6998977 L15.214116,19.3001023 L18.9998729,23.1634539 L18.9998729,10 L14.9998729,10 L14.9998729,8 L24.8762789,8 L24.8762789,10 L20.9998729,10 Z M30,22 L32,22 L32,27.8845171 C32,28.3056247 31.736191,28.6816084 31.3402014,28.8248697 C31.2881053,28.8437171 31.1927737,28.8772637 31.0575376,28.9234112 C30.8352692,28.9992572 30.5798146,29.0834842 30.2944929,29.1739933 C29.4818202,29.4317876 28.5900163,29.6893075 27.6453785,29.9297339 C25.779666,30.4045895 23.9424655,30.7536243 22.2115867,30.9236816 C21.4548602,30.9980293 20.7286965,31.0367432 20.0367432,31.0367432 C19.2949952,31.0367432 18.5119892,30.9917779 17.6922694,30.905726 C16.0142087,30.7295678 14.2341656,30.3886282 12.4180368,29.9300968 C11.4607128,29.6883942 10.5582584,29.4304845 9.71865568,29.1681503 C9.43627819,29.0799214 9.18919946,29.0000488 8.94762004,28.9199518 C8.82482282,28.8790984 8.82482282,28.8790984 8.7487431,28.8536942 C8.76169242,28.8561807 8.76169242,28.8561807 8.85611658,28.8738715 C8.9066983,28.8802271 8.9066983,28.8802271 9.04411313,28.8833306 L9.25804104,28.8504306 C8.97504945,28.9184044 8.63428966,28.8670791 8.33958132,28.6354147 C8.33953367,28.6353758 8.33953367,28.6353758 8.20381813,28.4896081 L8.09508252,27.8845171 L8,27.8845171 L8,22 L10,22 L10,27.159482 C10.1006852,27.1917404 10.2050703,27.2247785 10.3151193,27.2591634 C11.121198,27.511023 11.9885553,27.7589023 12.9076281,27.9909474 C14.6381154,28.4278563 16.3278996,28.7515082 17.9010764,28.916656 C18.6544354,28.9957415 19.3684212,29.0367432 20.0367432,29.0367432 C20.6602958,29.0367432 21.3217145,29.0014811 22.0160301,28.9332652 C23.6355746,28.7741464 25.3770816,28.4432916 27.1520718,27.9915264 C28.05721,27.7611533 28.9122647,27.5142452 29.6897545,27.2676115 C29.8008295,27.2323766 29.9043691,27.199074 30,27.1679352 L30,22 Z" id="Combined-Shape" fill="#BAC3D0" fill-rule="nonzero" transform="translate(20.000000, 19.518372) rotate(-180.000000) translate(-20.000000, -19.518372) "></path>
        <circle id="Oval" fill="#00A9FD" cx="31.5" cy="26.5" r="5.5"></circle>
        <text id="A" font-family=".AppleSystemUIFont" font-size="10" font-weight="normal" letter-spacing="0.416666657" fill="#FFFFFF">
            <tspan x="28.3000002" y="29.6999998">A</tspan>
        </text>
    </g>
</svg>