<?xml version="1.0" encoding="UTF-8"?>
<svg width="40px" height="40px" viewBox="0 0 40 40" version="1.1" xmlns="http://www.w3.org/2000/svg" xmlns:xlink="http://www.w3.org/1999/xlink">
    <!-- Generator: Sketch 50.2 (55047) - http://www.bohemiancoding.com/sketch -->
    <title>Удалить</title>
    <desc>Created with Sketch.</desc>
    <defs></defs>
    <g id="button_delete_basic" stroke="none" stroke-width="1" fill="none" fill-rule="evenodd">
        <path d="M9.00015213,28.8845171 L9.00015213,14 L31.0001521,14 L31.0001521,28.8845171 C31.0001521,29.2826131 30.764024,29.6427916 30.3989554,29.8015536 C30.2283647,29.8757406 29.9215363,30.0001699 29.4972285,30.1580358 C28.7967819,30.4186407 28.0169439,30.6787243 27.1762072,30.9214049 C24.7631668,31.6179346 22.3365128,32.0367432 20.0368953,32.0367432 C19.974376,32.036672 19.974376,32.036672 19.9118905,32.0363189 C17.6606258,32.0210749 15.2746375,31.6053229 12.8838743,30.9220221 C12.0296681,30.6778826 11.2375682,30.4169302 10.5155764,30.1527746 C10.2696171,30.0627853 10.5419749,30.1557138 9.85240833,29.9011296 C9.39269731,29.7314068 9.10861191,29.392536 9.00015213,28.8845171 Z M29.0001521,16 L11.0001521,16 L11.0001521,28.1995679 C11.0652837,28.2239488 11.1326861,28.2488984 11.2027677,28.2745392 C11.8814989,28.522867 12.6282424,28.768877 13.4334843,28.9990221 C15.6638115,29.6364689 17.8792877,30.0225096 19.9254328,30.0363647 C19.9811834,30.0366798 19.9811834,30.0366798 20.0368953,30.0367432 C22.1247694,30.0367432 24.3745136,29.6484669 26.6215474,28.9998554 C27.4118366,28.7717366 28.1444822,28.5273921 28.7998232,28.283569 C28.8704422,28.2572949 28.9372572,28.2321343 29.0001521,28.208188 L29.0001521,16 Z M21,27 L19,27 L19,18 L21,18 L21,27 Z M16,27 L14,27 L14,18 L16,18 L16,27 Z M26,27 L24,27 L24,18 L26,18 L26,27 Z M16,8 L24.1147461,8 L24.1147461,10 L32.0063477,10 L32.0063477,12 L8,12 L8,10 L16,10 L16,8 Z" id="Combined-Shape" fill="#BAC3D0" fill-rule="nonzero"></path>
    </g>
</svg>