<?xml version="1.0" encoding="UTF-8"?>
<svg width="40px" height="40px" viewBox="0 0 40 40" version="1.1" xmlns="http://www.w3.org/2000/svg" xmlns:xlink="http://www.w3.org/1999/xlink">
    <!-- Generator: Sketch 50.2 (55047) - http://www.bohemiancoding.com/sketch -->
    <title>Настройки</title>
    <desc>Created with Sketch.</desc>
    <defs></defs>
    <g id="button_pref_basic" stroke="none" stroke-width="1" fill="none" fill-rule="evenodd">
        <path d="M18.9336698,15.502678 C17.3292535,15.9439473 16.0499445,17.363328 15.7742509,19.0015502 C15.3157798,21.7253453 17.3993226,24.2238566 20.1631002,24.2593892 C20.1632995,24.2593892 20.1634987,24.2593228 20.163698,24.2593228 C21.8524629,24.2374055 23.4470496,23.2795509 24.1786241,21.7402225 C24.9572877,20.1018011 24.6626654,18.2449368 23.5238267,16.8606902 C22.4368591,15.5396054 20.5517679,15.057623 18.9336698,15.502678 Z M30.8757024,19.5267696 C30.1786643,19.1781509 29.4815598,18.8295986 28.7845881,18.4811128 C28.7307909,18.1797161 28.6769938,17.8783857 28.6231967,17.576989 C29.1184623,16.9228558 29.6138608,16.2687225 30.1091265,15.6145893 C30.3764517,15.2615208 30.2043673,14.7870434 29.9637414,14.4878384 C29.1468221,13.4719361 28.3299027,12.4561002 27.5130498,11.4401979 C27.327815,11.2098665 26.8829592,11.0912471 26.6083946,11.2010331 C25.819835,11.5165101 25.0312754,11.8319207 24.2427158,12.1473976 C24.0436664,12.0431242 23.844617,11.9388507 23.6456341,11.8345109 C23.4331022,11.1172158 23.2205039,10.3998544 23.0079056,9.68262578 C22.8900169,9.28485911 22.5310373,9 22.1112868,9 L18.215445,9 C17.7956945,9 17.4367149,9.28485911 17.3188262,9.68262578 C17.1062279,10.3998544 16.8936296,11.1172158 16.6810313,11.8345109 C16.481982,11.9387843 16.282999,12.0431242 16.084016,12.1473976 C15.29539,11.8319207 14.506764,11.5165101 13.7180715,11.2010331 C13.4434405,11.0911807 12.9986511,11.2098 12.8134163,11.4401979 C11.9965634,12.4560338 11.1796441,13.4719361 10.3628576,14.4878384 C10.1222316,14.7870434 9.95008083,15.2614543 10.2174725,15.6145893 C10.7127381,16.2687225 11.2080702,16.9228558 11.7032694,17.576989 L11.5417452,18.4813785 C10.8449064,18.8297979 10.1480675,19.1782837 9.45122869,19.5267696 C9.0652177,19.7197751 8.94248055,20.1864153 9.02390682,20.5768098 C9.27529216,21.7812013 9.52674392,22.9855264 9.77812927,24.1899179 C9.86732623,24.6172398 10.2784426,24.8373431 10.6747481,24.8725437 C11.4502237,24.9414837 12.2256993,25.0104237 13.001175,25.0794301 C13.1518733,25.2873793 13.3027045,25.4953284 13.4534029,25.7032112 C13.3588262,26.4883836 13.2642496,27.273556 13.1696065,28.0587284 C13.1341402,28.3532178 13.3671283,28.7361737 13.6301364,28.8615675 C14.7507771,29.395753 15.8714178,29.9299386 16.9920584,30.4641241 C17.3660481,30.6423852 17.8143575,30.6393301 18.1188758,30.3187391 C18.6296164,29.7810334 19.1402906,29.2433942 19.6510313,28.7056886 L20.6759662,28.7056886 C21.1867732,29.2433942 21.6974475,29.7810334 22.2082545,30.3187391 C22.5127728,30.6393301 22.9610822,30.6424517 23.3351383,30.4641241 C24.4555797,29.9299386 25.5761539,29.395753 26.6967282,28.8615675 C26.9597364,28.7361073 27.1927908,28.3532178 27.1572582,28.0587284 C27.0626815,27.273556 26.9681048,26.48845 26.8735281,25.7032776 C27.0242929,25.4953949 27.1751241,25.2873793 27.3258889,25.0794301 C28.1013646,25.0104901 28.8769066,24.9415501 29.6523158,24.8725437 C30.0486877,24.8372767 30.4597376,24.6171733 30.5489346,24.1899179 C30.8002535,22.9855264 31.0516389,21.7812013 31.3030242,20.5767434 C31.3845169,20.1864153 31.2617134,19.7197751 30.8757024,19.5267696 Z" id="Page-1" stroke="#BAC3D0" stroke-width="2"></path>
    </g>
</svg>