<?xml version="1.0" encoding="UTF-8"?>
<svg width="40px" height="40px" viewBox="0 0 40 40" version="1.1" xmlns="http://www.w3.org/2000/svg" xmlns:xlink="http://www.w3.org/1999/xlink">
    <!-- Generator: Sketch 50.2 (55047) - http://www.bohemiancoding.com/sketch -->
    <title>button_magnifer</title>
    <desc>Created with Sketch.</desc>
    <defs></defs>
    <g id="button_magnifer" stroke="none" stroke-width="1" fill="none" fill-rule="evenodd">
        <polygon id="button" fill="#BAC3D0" points="0 0 40 0 40 40 0 40"></polygon>
        <path d="M18.234559,28.469118 C12.5821681,28.469118 8,23.8869498 8,18.234559 C8,12.5821681 12.5821681,8 18.234559,8 C23.8869498,8 28.469118,12.5821681 28.469118,18.234559 C28.469118,20.3884653 27.8037525,22.3869672 26.6673478,24.0357383 L26.1549434,24.6756661 L32,30.5207226 L30.553073,31.9676496 L24.7119497,26.1265264 L24.0357383,26.6673478 C22.3869672,27.8037525 20.3884653,28.469118 18.234559,28.469118 Z M26.3131262,18.234559 C26.3131262,13.7728895 22.6962285,10.1559917 18.234559,10.1559917 C13.7728895,10.1559917 10.1559917,13.7728895 10.1559917,18.234559 C10.1559917,22.6962285 13.7728895,26.3131262 18.234559,26.3131262 C22.6962285,26.3131262 26.3131262,22.6962285 26.3131262,18.234559 Z" id="magnifer" fill="#FFFFFF"></path>
    </g>
</svg>