<?xml version="1.0" encoding="UTF-8"?>
<svg width="18px" height="18px" viewBox="0 0 18 18" version="1.1" xmlns="http://www.w3.org/2000/svg" xmlns:xlink="http://www.w3.org/1999/xlink">
    <!-- Generator: Sketch 50.2 (55047) - http://www.bohemiancoding.com/sketch -->
    <title>Три колонки</title>
    <desc>Created with Sketch.</desc>
    <defs></defs>
    <g id="columns_3" stroke="none" stroke-width="1" fill-rule="evenodd">
        <path d="M3,8 L3,10 L6,10 L6,8 L3,8 Z M3,6 L6,6 L6,4 L3,4 L3,6 Z M8,8 L8,10 L11,10 L11,8 L8,8 Z M8,6 L11,6 L11,4 L8,4 L8,6 Z M13,8 L13,10 L16,10 L16,8 L13,8 Z M13,6 L16,6 L16,4 L13,4 L13,6 Z M3,12 L3,14 L6,14 L6,12 L3,12 Z M8,12 L8,14 L11,14 L11,12 L8,12 Z M13,12 L13,14 L16,14 L16,12 L13,12 Z M3,16 L1,16 L1,2 L3,2 L16,2 L18,2 L18,16 L16,16 L3,16 Z" id="Combined-Shape"></path>
    </g>
</svg>