<?xml version="1.0" encoding="UTF-8"?>
<svg width="18px" height="18px" viewBox="0 0 18 18" version="1.1" xmlns="http://www.w3.org/2000/svg" xmlns:xlink="http://www.w3.org/1999/xlink">
    <!-- Generator: Sketch 50.2 (55047) - http://www.bohemiancoding.com/sketch -->
    <title>Две колонки</title>
    <desc>Created with Sketch.</desc>
    <defs></defs>
    <g id="columns_2" stroke="none" stroke-width="1" fill-rule="evenodd">
        <path d="M3,8 L3,10 L8,10 L8,8 L3,8 Z M3,6 L8,6 L8,4 L3,4 L3,6 Z M10,8 L10,10 L15,10 L15,8 L10,8 Z M10,6 L15,6 L15,4 L10,4 L10,6 Z M3,12 L3,14 L8,14 L8,12 L3,12 Z M10,12 L10,14 L15,14 L15,12 L10,12 Z M3,16 L1,16 L1,2 L3,2 L15,2 L17,2 L17,16 L15,16 L3,16 Z" id="Combined-Shape"></path>
    </g>
</svg>