<?xml version="1.0" encoding="UTF-8"?>
<svg width="24px" height="24px" viewBox="0 0 24 24" version="1.1" xmlns="http://www.w3.org/2000/svg" xmlns:xlink="http://www.w3.org/1999/xlink">
    <!-- Generator: Sketch 50.2 (55047) - http://www.bohemiancoding.com/sketch -->
    <title>delete_icon</title>
    <desc>Created with Sketch.</desc>
    <defs></defs>
    <g id="delete_icon" stroke="none" stroke-width="1" fill="none" fill-rule="evenodd">
        <path d="M1.00015213,20.8845171 L1.00015213,6 L23.0001521,6 L23.0001521,20.8845171 C23.0001521,21.2826131 22.764024,21.6427916 22.3989554,21.8015536 C22.2283647,21.8757406 21.9215363,22.0001699 21.4972285,22.1580358 C20.7967819,22.4186407 20.0169439,22.6787243 19.1762072,22.9214049 C16.7631668,23.6179346 14.3365128,24.0367432 12.0368953,24.0367432 C11.974376,24.036672 11.974376,24.036672 11.9118905,24.0363189 C9.66062581,24.0210749 7.27463748,23.6053229 4.88387433,22.9220221 C4.02966814,22.6778826 3.23756817,22.4169302 2.51557643,22.1527746 C2.26961712,22.0627853 2.54197487,22.1557138 1.85240833,21.9011296 C1.39269731,21.7314068 1.10861191,21.392536 1.00015213,20.8845171 Z M21.0001521,8 L3.00015213,8 L3.00015213,20.1995679 C3.0652837,20.2239488 3.13268605,20.2488984 3.2027677,20.2745392 C3.88149892,20.522867 4.62824244,20.768877 5.43348434,20.9990221 C7.66381148,21.6364689 9.87928773,22.0225096 11.9254328,22.0363647 C11.9811834,22.0366798 11.9811834,22.0366798 12.0368953,22.0367432 C14.1247694,22.0367432 16.3745136,21.6484669 18.6215474,20.9998554 C19.4118366,20.7717366 20.1444822,20.5273921 20.7998232,20.283569 C20.8704422,20.2572949 20.9372572,20.2321343 21.0001521,20.208188 L21.0001521,8 Z M13,19 L11,19 L11,10 L13,10 L13,19 Z M8,19 L6,19 L6,10 L8,10 L8,19 Z M18,19 L16,19 L16,10 L18,10 L18,19 Z M8,0 L16.1147461,0 L16.1147461,2 L24.0063477,2 L24.0063477,4 L0,4 L0,2 L8,2 L8,0 Z" id="Combined-Shape" fill="#BAC3D0" fill-rule="nonzero"></path>
    </g>
</svg>