<?xml version="1.0" encoding="UTF-8"?>
<svg width="24px" height="24px" viewBox="0 0 24 24" version="1.1" xmlns="http://www.w3.org/2000/svg" xmlns:xlink="http://www.w3.org/1999/xlink">
    <!-- Generator: Sketch 50.2 (55047) - http://www.bohemiancoding.com/sketch -->
    <title>edit_icon</title>
    <desc>Created with Sketch.</desc>
    <defs></defs>
    <g id="edit_icon" stroke="none" stroke-width="1" fill="none" fill-rule="evenodd">
        <path d="M10.3393673,25.0718627 L15.2424191,19.7240846 L15.2424191,3.36922595 C15.2424191,2.26465645 14.3469886,1.36922595 13.2424191,1.36922595 L7.24241909,1.36922595 C6.13784959,1.36922595 5.24241909,2.26465645 5.24241909,3.36922595 L5.24241909,19.7050814 L10.3393673,25.0718627 Z M7.24241909,-0.630774054 L13.2424191,-0.630774054 C15.4515581,-0.630774054 17.2424191,1.16008695 17.2424191,3.36922595 L17.2424191,20.3692259 L10.3683957,27.9156127 L3.24241909,20.3692259 L3.24241909,3.36922595 C3.24241909,1.16008695 5.03328009,-0.630774054 7.24241909,-0.630774054 Z M11.2424191,9.36922595 L11.2424191,19.3692259 L9.24241909,19.3692259 L9.24241909,9.36922595 L5.24241909,9.36922595 L5.24241909,7.36922595 L13.2424191,7.36922595 L13.2424191,9.36922595 L11.2424191,9.36922595 Z" id="Combined-Shape" fill="#BAC3D0" fill-rule="nonzero" transform="translate(10.242419, 13.642419) rotate(-315.000000) translate(-10.242419, -13.642419) "></path>
    </g>
</svg>