<?xml version="1.0" encoding="UTF-8"?>
<svg width="18px" height="18px" viewBox="0 0 18 18" version="1.1" xmlns="http://www.w3.org/2000/svg" xmlns:xlink="http://www.w3.org/1999/xlink">
    <!-- Generator: Sketch 50.2 (55047) - http://www.bohemiancoding.com/sketch -->
    <title>edit_mini_icon</title>
    <desc>Created with Sketch.</desc>
    <defs></defs>
    <g id="edit_mini_icon" stroke="none" stroke-width="1" fill="none" fill-rule="evenodd">
        <path d="M7.68203447,18.3445927 L10.7158091,15.310818 L10.8620523,3.04557634 C10.8620523,2.27469313 10.237128,1.6497688 9.46624476,1.6497688 L5.86446275,1.63177176 C5.09357953,1.63177176 4.46865521,2.25669608 4.46865521,3.0275793 L4.45516924,15.1177275 L7.68203447,18.3445927 Z M5.41368693,-0.466233879 L9.90320578,-0.466233879 C11.556201,-0.466233879 12.8962183,0.873783491 12.8962183,2.52677869 L12.8923722,15.932126 L7.6546002,21.169898 L2.41682821,15.932126 L2.42067437,2.52677869 C2.42067437,0.873783491 3.76069174,-0.466233879 5.41368693,-0.466233879 Z M8.4948361,7.0512118 L8.4948361,14.5337432 L6.55970098,14.5497118 L6.55970098,7.0671804 L3.91718065,7.01629754 L3.88526096,5.35625303 L9.87128609,5.35625303 L9.90320578,7.01629754 L8.4948361,7.0512118 Z" id="Combined-Shape" fill="#BAC3D0" fill-rule="nonzero" transform="translate(7.656523, 10.351832) rotate(-315.000000) translate(-7.656523, -10.351832) "></path>
    </g>
</svg>