<?xml version="1.0" encoding="UTF-8"?>
<svg width="14px" height="14px" viewBox="0 0 14 14" version="1.1" xmlns="http://www.w3.org/2000/svg" xmlns:xlink="http://www.w3.org/1999/xlink">
    <!-- Generator: Sketch 50.2 (55047) - http://www.bohemiancoding.com/sketch -->
    <title>magnifer_icon_small</title>
    <desc>Created with Sketch.</desc>
    <defs></defs>
    <g id="magnifer_icon_small" stroke="none" stroke-width="1" fill="none" fill-rule="evenodd">
        <path d="M9.27001576,10.7913091 C8.31688632,11.4482473 7.16158286,11.8328849 5.91644246,11.8328849 C2.64888152,11.8328849 8.8817842e-15,9.1840034 8.8817842e-15,5.91644246 C8.8817842e-15,2.64888152 2.64888152,0 5.91644246,0 C9.1840034,0 11.8328849,2.64888152 11.8328849,5.91644246 C11.8328849,7.16158286 11.4482473,8.31688632 10.7913091,9.27001576 L14.2071068,12.6858135 L12.6858135,14.2071068 L9.27001576,10.7913091 L9.27001576,10.7913091 Z M5.91644246,10.1495964 C8.25434884,10.1495964 10.1495964,8.25434884 10.1495964,5.91644246 C10.1495964,3.57853608 8.25434884,1.68328849 5.91644246,1.68328849 C3.57853608,1.68328849 1.68328849,3.57853608 1.68328849,5.91644246 C1.68328849,8.25434884 3.57853608,10.1495964 5.91644246,10.1495964 L5.91644246,10.1495964 Z" id="magnifer" fill="#BAC3D0"></path>
    </g>
</svg>