<?xml version="1.0" encoding="UTF-8"?>
<svg width="24px" height="24px" viewBox="0 0 24 24" version="1.1" xmlns="http://www.w3.org/2000/svg" xmlns:xlink="http://www.w3.org/1999/xlink">
    <!-- Generator: Sketch 50.2 (55047) - http://www.bohemiancoding.com/sketch -->
    <title>magnifer_icon</title>
    <desc>Created with Sketch.</desc>
    <defs></defs>
    <g id="magnifer_icon" stroke="none" stroke-width="1" fill="none" fill-rule="evenodd">
        <path d="M10.234559,20.469118 C4.58216813,20.469118 0,15.8869498 0,10.234559 C0,4.58216813 4.58216813,0 10.234559,0 C15.8869498,0 20.469118,4.58216813 20.469118,10.234559 C20.469118,12.3884653 19.8037525,14.3869672 18.6673478,16.0357383 L18.1549434,16.6756661 L24,22.5207226 L22.553073,23.9676496 L16.7119497,18.1265264 L16.0357383,18.6673478 C14.3869672,19.8037525 12.3884653,20.469118 10.234559,20.469118 Z M18.3131262,10.234559 C18.3131262,5.77288948 14.6962285,2.15599172 10.234559,2.15599172 C5.77288948,2.15599172 2.15599172,5.77288948 2.15599172,10.234559 C2.15599172,14.6962285 5.77288948,18.3131262 10.234559,18.3131262 C14.6962285,18.3131262 18.3131262,14.6962285 18.3131262,10.234559 Z" id="magnifer" fill="#BAC3D0"></path>
    </g>
</svg>