<?xml version="1.0" encoding="UTF-8"?>
<svg width="24px" height="24px" viewBox="0 0 24 24" version="1.1" xmlns="http://www.w3.org/2000/svg" xmlns:xlink="http://www.w3.org/1999/xlink">
    <!-- Generator: Sketch 50.2 (55047) - http://www.bohemiancoding.com/sketch -->
    <title>new_window_icon</title>
    <desc>Created with Sketch.</desc>
    <defs></defs>
    <g id="new_window_icon" stroke="none" stroke-width="1" fill="none" fill-rule="evenodd">
        <path d="M22,3.43502884 L8.71751442,16.7175144 L7.30330086,15.3033009 L20.6066017,2 L13,2 L13,0 L24,0 L24,11 L22,11 L22,3.43502884 Z M24,16.7175144 L24,20.8479824 C24,21.2690621 23.736191,21.6450209 23.3402014,21.7882728 C23.2881053,21.8071189 23.1927737,21.8406633 23.0575376,21.8868077 C22.8352692,21.9626487 22.5798146,22.0468702 22.2944929,22.1373733 C21.4818202,22.3951506 20.5900163,22.6526535 19.6453785,22.8930639 C17.779666,23.3678881 15.9424655,23.7168999 14.2115867,23.8869459 C13.4548602,23.9612887 12.7286965,24 12.0367432,24 C11.2949952,24 10.5119892,23.9550377 9.69226936,23.8689915 C8.0142087,23.692845 6.23416562,23.3519279 4.41803676,22.8934268 C3.46071281,22.6517401 2.55825838,22.3938475 1.71865568,22.1315307 C1.43627819,22.0433076 1.18919946,21.9634403 0.947620037,21.8833486 C0.824822818,21.8424979 1.4974862,22.241013 0.748743098,21.8170954 C0.249581033,21.5344836 -7.4015302e-14,21.2114459 5.32776948e-15,20.8479824 L0,2.96464772 C-2.22478286e-16,2.54209704 0.265627306,2.16515732 0.663573747,2.02300017 C0.713105807,2.00530599 0.803051618,1.97421144 0.930753249,1.93163429 C1.1398305,1.86192559 1.38129712,1.7845907 1.65250421,1.70154887 C2.42385326,1.46536686 3.28194894,1.2295721 4.20577177,1.00956423 C5.13905489,0.787303409 6.07282385,0.596307124 7,0.442145774 L7,2.47123603 C6.22705964,2.6070211 5.44828781,2.76946415 4.66914156,2.95501737 C3.78829416,3.16479066 2.97062854,3.38947571 2.23809226,3.6137735 C2.15389632,3.63955375 2.07448003,3.66418301 2,3.68755069 L2,20.1229952 C2.10068517,20.1552514 2.20507029,20.1882874 2.31511931,20.22267 C3.121198,20.4745129 3.98855526,20.7223759 4.90762811,20.9544056 C6.63811539,21.3912856 8.32789961,21.7149161 9.90107641,21.880053 C10.6544354,21.9591333 11.3684212,22.0001322 12.0367432,22.0001322 C12.6602958,22.0001322 13.3217145,21.9648725 14.0160301,21.8966611 C15.6355746,21.7375528 17.3770816,21.4067199 19.1520718,20.9549846 C20.05721,20.7246267 20.9122647,20.4777349 21.6897545,20.2311176 C21.8008295,20.1958849 21.9043691,20.1625846 22,20.1314478 L22,16.7175144 L24,16.7175144 Z" id="Combined-Shape" fill="#BAC3D0" fill-rule="nonzero"></path>
    </g>
</svg>