<?xml version="1.0" encoding="UTF-8"?>
<svg width="24px" height="24px" viewBox="0 0 24 24" version="1.1" xmlns="http://www.w3.org/2000/svg" xmlns:xlink="http://www.w3.org/1999/xlink">
    <!-- Generator: Sketch 50.2 (55047) - http://www.bohemiancoding.com/sketch -->
    <title>pref_icon</title>
    <desc>Created with Sketch.</desc>
    <defs></defs>
    <g id="pref_icon" stroke="none" stroke-width="1" fill="none" fill-rule="evenodd">
        <path d="M10.9336698,7.502678 C9.32925351,7.94394728 8.04994453,9.36332804 7.77425086,11.0015502 C7.31577978,13.7253453 9.39932261,16.2238566 12.1631002,16.2593892 C12.1632995,16.2593892 12.1634987,16.2593228 12.163698,16.2593228 C13.8524629,16.2374055 15.4470496,15.2795509 16.1786241,13.7402225 C16.9572877,12.1018011 16.6626654,10.2449368 15.5238267,8.86069019 C14.4368591,7.53960541 12.5517679,7.057623 10.9336698,7.502678 Z M22.8757024,11.5267696 C22.1786643,11.1781509 21.4815598,10.8295986 20.7845881,10.4811128 C20.7307909,10.1797161 20.6769938,9.87838573 20.6231967,9.57698898 C21.1184623,8.92285576 21.6138608,8.26872253 22.1091265,7.61458931 C22.3764517,7.26152075 22.2043673,6.78704337 21.9637414,6.48783836 C21.1468221,5.47193605 20.3299027,4.45610017 19.5130498,3.44019786 C19.327815,3.20986646 18.8829592,3.09124711 18.6083946,3.2010331 C17.819835,3.51651009 17.0312754,3.83192065 16.2427158,4.14739764 C16.0436664,4.04312419 15.844617,3.93885075 15.6456341,3.83451089 C15.4331022,3.11721585 15.2205039,2.3998544 15.0079056,1.68262578 C14.8900169,1.28485911 14.5310373,1 14.1112868,1 L10.215445,1 C9.79569453,1 9.43671494,1.28485911 9.31882617,1.68262578 C9.10622789,2.3998544 8.89362961,3.11721585 8.68103133,3.83451089 C8.48198196,3.93878433 8.282999,4.04312419 8.08401605,4.14739764 C7.29539,3.83192065 6.50676396,3.51651009 5.7180715,3.2010331 C5.44344049,3.0911807 4.99865115,3.20980004 4.81341635,3.44019786 C3.99656341,4.45603375 3.17964407,5.47193605 2.36285755,6.48783836 C2.12223163,6.78704337 1.95008083,7.26145434 2.21747248,7.61458931 C2.71273813,8.26872253 3.2080702,8.92285576 3.70326944,9.57698898 L3.54174523,10.4813785 C2.84490638,10.8297979 2.14806754,11.1782837 1.45122869,11.5267696 C1.0652177,11.7197751 0.942480548,12.1864153 1.02390682,12.5768098 C1.27529216,13.7812013 1.52674392,14.9855264 1.77812927,16.1899179 C1.86732623,16.6172398 2.27844255,16.8373431 2.67474806,16.8725437 C3.45022369,16.9414837 4.22569933,17.0104237 5.00117496,17.0794301 C5.15187334,17.2873793 5.30270454,17.4953284 5.45340292,17.7032112 C5.35882624,18.4883836 5.26424956,19.273556 5.16960646,20.0587284 C5.13414021,20.3532178 5.36712826,20.7361737 5.63013644,20.8615675 C6.75077711,21.395753 7.87141777,21.9299386 8.99205843,22.4641241 C9.36604809,22.6423852 9.81435749,22.6393301 10.1188758,22.3187391 C10.6296164,21.7810334 11.1402906,21.2433942 11.6510313,20.7056886 L12.6759662,20.7056886 C13.1867732,21.2433942 13.6974475,21.7810334 14.2082545,22.3187391 C14.5127728,22.6393301 14.9610822,22.6424517 15.3351383,22.4641241 C16.4555797,21.9299386 17.5761539,21.395753 18.6967282,20.8615675 C18.9597364,20.7361073 19.1927908,20.3532178 19.1572582,20.0587284 C19.0626815,19.273556 18.9681048,18.48845 18.8735281,17.7032776 C19.0242929,17.4953949 19.1751241,17.2873793 19.3258889,17.0794301 C20.1013646,17.0104901 20.8769066,16.9415501 21.6523158,16.8725437 C22.0486877,16.8372767 22.4597376,16.6171733 22.5489346,16.1899179 C22.8002535,14.9855264 23.0516389,13.7812013 23.3030242,12.5767434 C23.3845169,12.1864153 23.2617134,11.7197751 22.8757024,11.5267696 Z" id="Page-1" stroke="#BAC3D0" stroke-width="2"></path>
    </g>
</svg>