<?xml version="1.0" encoding="UTF-8"?>
<svg width="18px" height="18px" viewBox="0 0 18 18" version="1.1" xmlns="http://www.w3.org/2000/svg" xmlns:xlink="http://www.w3.org/1999/xlink">
    <!-- Generator: Sketch 50.2 (55047) - http://www.bohemiancoding.com/sketch -->
    <title>pref_icon_mini</title>
    <desc>Created with Sketch.</desc>
    <defs></defs>
    <g id="pref_icon_mini" stroke="none" stroke-width="1" fill="none" fill-rule="evenodd">
        <path d="M8.11869169,5.65996562 C6.9689308,5.97618913 6.05214915,6.99334937 5.85458084,8.1673363 C5.52603014,10.1192692 7.01914389,11.9097587 8.99972923,11.9352223 C8.99987201,11.9352223 9.0000148,11.9351747 9.00015759,11.9351747 C10.2103646,11.9194682 11.3530814,11.233048 11.8773441,10.1299306 C12.435352,8.95580088 12.2242191,7.62513006 11.4081016,6.63314776 C10.6291561,5.68642863 9.27825722,5.34102917 8.11869169,5.65996562 Z M16.6766214,8.54372033 C16.1771081,8.29389234 15.6775473,8.04411193 15.1780817,7.79437913 C15.1395295,7.57839143 15.1009773,7.36245132 15.062425,7.14646362 C15.4173436,6.677697 15.7723573,6.20893039 16.1272758,5.74016378 C16.3188471,5.4871469 16.1955275,5.14712571 16.0230896,4.93270865 C15.4376668,4.20469017 14.852244,3.47671928 14.2668687,2.74870079 C14.1341253,2.58364011 13.8153316,2.49863481 13.6185725,2.57730993 C13.0534729,2.80338785 12.4883733,3.02941817 11.9232737,3.25549608 C11.7806304,3.18077138 11.6379871,3.10604668 11.4953915,3.03127439 C11.3430863,2.5172446 11.1907336,2.00316721 11.0383809,1.48918502 C10.9538991,1.20413646 10.6966463,1 10.3958437,1 L7.60399556,1 C7.30319295,1 7.04594007,1.20413646 6.96145833,1.48918502 C6.80910561,2.00316721 6.65675289,2.5172446 6.50440017,3.03127439 C6.3617569,3.10599909 6.21916123,3.18077138 6.07656556,3.25549608 C5.51141836,3.02941817 4.94627117,2.80338785 4.38107638,2.57730993 C4.1842696,2.49858722 3.86552354,2.58359252 3.7327801,2.74870079 C3.14740488,3.47667168 2.56198206,4.20469017 1.97665444,4.93270865 C1.80421648,5.14712571 1.68084933,5.4870993 1.87246822,5.74016378 C2.22738675,6.20893039 2.58235287,6.677697 2.93722381,7.14646362 L2.82147192,7.79456951 C2.3221015,8.04425472 1.82273107,8.29398753 1.32336065,8.54372033 C1.04673647,8.68203242 0.958780265,9.01643736 1.01713216,9.29620283 C1.19728057,10.1592969 1.37747657,11.0223434 1.55762497,11.8854375 C1.62154553,12.191666 1.91616075,12.349397 2.20016221,12.3746225 C2.75588552,12.4240265 3.31160884,12.4734305 3.86733216,12.522882 C3.97532601,12.6719031 4.08341505,12.8209241 4.1914089,12.9698976 C4.12363312,13.5325698 4.05585734,14.0952421 3.98803397,14.6579143 C3.96261805,14.8689521 4.12958254,15.1433869 4.31806013,15.2332469 C5.12113649,15.6160563 5.92421284,15.9988657 6.7272892,16.3816751 C6.99529862,16.509421 7.31656724,16.5072317 7.53479192,16.2774889 C7.90080017,15.8921569 8.26676082,15.5068726 8.63276907,15.1215406 L9.36726053,15.1215406 C9.73331637,15.5068726 10.099277,15.8921569 10.4653329,16.2774889 C10.6835576,16.5072317 11.0048262,16.5094686 11.2728832,16.3816751 C12.0758168,15.9988657 12.8788455,15.6160563 13.6818743,15.2332469 C13.8703519,15.1433393 14.037364,14.8689521 14.0119004,14.6579143 C13.9441247,14.0952421 13.8763489,13.5326174 13.8085731,12.9699452 C13.9166145,12.8209717 14.0247036,12.6719031 14.132745,12.522882 C14.6884684,12.4734781 15.2442393,12.4240741 15.799915,12.3746225 C16.083964,12.3493494 16.3785317,12.1916184 16.4424522,11.8854375 C16.622553,11.0223434 16.8027014,10.1592969 16.9828498,9.29615524 C17.0412493,9.01643736 16.9532455,8.68203242 16.6766214,8.54372033 Z" id="Page-1" stroke="#BAC3D0" stroke-width="2"></path>
    </g>
</svg>