<?xml version="1.0" encoding="UTF-8"?>
<svg width="24px" height="24px" viewBox="0 0 24 24" version="1.1" xmlns="http://www.w3.org/2000/svg" xmlns:xlink="http://www.w3.org/1999/xlink">
    <!-- Generator: Sketch 50.2 (55047) - http://www.bohemiancoding.com/sketch -->
    <title>upload_icon</title>
    <desc>Created with Sketch.</desc>
    <defs></defs>
    <g id="upload_icon" stroke="none" stroke-width="1" fill="none" fill-rule="evenodd">
        <path d="M12.9998729,3 L12.9998729,16.0535516 L16.7691325,12.2921553 L18.1818686,13.7078447 L11.9183398,19.9583068 L5.78562974,13.6998977 L7.21411599,12.3001023 L10.9998729,16.1634539 L10.9998729,3 L6.99987287,3 L6.99987287,1 L16.8762789,1 L16.8762789,3 L12.9998729,3 Z M22,15 L24,15 L24,20.8845171 C24,21.3056247 23.736191,21.6816084 23.3402014,21.8248697 C23.2881053,21.8437171 23.1927737,21.8772637 23.0575376,21.9234112 C22.8352692,21.9992572 22.5798146,22.0834842 22.2944929,22.1739933 C21.4818202,22.4317876 20.5900163,22.6893075 19.6453785,22.9297339 C17.779666,23.4045895 15.9424655,23.7536243 14.2115867,23.9236816 C13.4548602,23.9980293 12.7286965,24.0367432 12.0367432,24.0367432 C11.2949952,24.0367432 10.5119892,23.9917779 9.69226936,23.905726 C8.0142087,23.7295678 6.23416562,23.3886282 4.41803676,22.9300968 C3.46071281,22.6883942 2.55825838,22.4304845 1.71865568,22.1681503 C1.43627819,22.0799214 1.18919946,22.0000488 0.947620037,21.9199518 C0.824822818,21.8790984 0.824822818,21.8790984 0.748743098,21.8536942 C0.761692416,21.8561807 0.761692416,21.8561807 0.856116579,21.8738715 C0.906698299,21.8802271 0.906698299,21.8802271 1.04411313,21.8833306 L1.25804104,21.8504306 C0.975049455,21.9184044 0.634289659,21.8670791 0.339581316,21.6354147 C0.339533674,21.6353758 0.339533674,21.6353758 0.203818126,21.4896081 L0.0950825222,20.8845171 L0,20.8845171 L0,15 L2,15 L2,20.159482 C2.10068517,20.1917404 2.20507029,20.2247785 2.31511931,20.2591634 C3.121198,20.511023 3.98855526,20.7589023 4.90762811,20.9909474 C6.63811539,21.4278563 8.32789961,21.7515082 9.90107641,21.916656 C10.6544354,21.9957415 11.3684212,22.0367432 12.0367432,22.0367432 C12.6602958,22.0367432 13.3217145,22.0014811 14.0160301,21.9332652 C15.6355746,21.7741464 17.3770816,21.4432916 19.1520718,20.9915264 C20.05721,20.7611533 20.9122647,20.5142452 21.6897545,20.2676115 C21.8008295,20.2323766 21.9043691,20.199074 22,20.1679352 L22,15 Z" id="Combined-Shape" fill="#BAC3D0" fill-rule="nonzero" transform="translate(12.000000, 12.518372) rotate(-180.000000) translate(-12.000000, -12.518372) "></path>
    </g>
</svg>